<mxfile host="app.diagrams.net" modified="2022-11-02T08:08:54.289Z" agent="5.0 (Windows NT 10.0; Win64; x64) AppleWebKit/537.36 (KHTML, like Gecko) Chrome/106.0.0.0 Safari/537.36" etag="h5BTE3DD_hYiULRw6bhF" version="20.4.2" type="github">
  <diagram id="kgpKYQtTHZ0yAKxKKP6v" name="Page-1">
    <mxGraphModel dx="1550" dy="835" grid="1" gridSize="10" guides="1" tooltips="1" connect="1" arrows="1" fold="1" page="1" pageScale="1" pageWidth="850" pageHeight="1100" math="0" shadow="0">
      <root>
        <mxCell id="0" />
        <mxCell id="1" parent="0" />
        <mxCell id="iojGbuhWal9sQf1TP7xn-5" value="User" style="shape=umlLifeline;participant=umlActor;perimeter=lifelinePerimeter;whiteSpace=wrap;html=1;container=1;collapsible=0;recursiveResize=0;verticalAlign=top;spacingTop=36;outlineConnect=0;" vertex="1" parent="1">
          <mxGeometry x="140" y="240" width="20" height="840" as="geometry" />
        </mxCell>
        <mxCell id="iojGbuhWal9sQf1TP7xn-4" value="" style="points=[];perimeter=orthogonalPerimeter;rounded=0;shadow=0;strokeWidth=1;" vertex="1" parent="iojGbuhWal9sQf1TP7xn-5">
          <mxGeometry x="5" y="80" width="10" height="650" as="geometry" />
        </mxCell>
        <mxCell id="iojGbuhWal9sQf1TP7xn-7" value="&lt;pre style=&quot;font-family: &amp;quot;JetBrains Mono&amp;quot;, monospace; font-size: 13.5pt;&quot;&gt;&lt;span style=&quot;background-color: rgb(255, 255, 255);&quot;&gt;MultipleTag 组件&lt;/span&gt;&lt;/pre&gt;" style="shape=umlLifeline;perimeter=lifelinePerimeter;whiteSpace=wrap;html=1;container=1;collapsible=0;recursiveResize=0;outlineConnect=0;" vertex="1" parent="1">
          <mxGeometry x="540" y="240" width="100" height="800" as="geometry" />
        </mxCell>
        <mxCell id="iojGbuhWal9sQf1TP7xn-9" value="" style="html=1;points=[];perimeter=orthogonalPerimeter;labelBackgroundColor=#FFFFFF;fontColor=#000000;" vertex="1" parent="iojGbuhWal9sQf1TP7xn-7">
          <mxGeometry x="45" y="110" width="10" height="480" as="geometry" />
        </mxCell>
        <mxCell id="iojGbuhWal9sQf1TP7xn-19" value="" style="html=1;points=[];perimeter=orthogonalPerimeter;labelBackgroundColor=#FFFFFF;fontColor=#000000;" vertex="1" parent="iojGbuhWal9sQf1TP7xn-7">
          <mxGeometry x="50" y="180" width="10" height="40" as="geometry" />
        </mxCell>
        <mxCell id="iojGbuhWal9sQf1TP7xn-20" value="blur" style="edgeStyle=orthogonalEdgeStyle;html=1;align=left;spacingLeft=2;endArrow=block;rounded=0;entryX=1;entryY=0;fontColor=#000000;" edge="1" target="iojGbuhWal9sQf1TP7xn-19" parent="iojGbuhWal9sQf1TP7xn-7">
          <mxGeometry relative="1" as="geometry">
            <mxPoint x="55" y="145" as="sourcePoint" />
            <Array as="points">
              <mxPoint x="85" y="145" />
            </Array>
          </mxGeometry>
        </mxCell>
        <mxCell id="iojGbuhWal9sQf1TP7xn-22" value="" style="html=1;points=[];perimeter=orthogonalPerimeter;labelBackgroundColor=#FFFFFF;fontColor=#000000;" vertex="1" parent="iojGbuhWal9sQf1TP7xn-7">
          <mxGeometry x="50" y="260" width="10" height="40" as="geometry" />
        </mxCell>
        <mxCell id="iojGbuhWal9sQf1TP7xn-23" value="add，添加标签，并在过程中校验是否有重复的标签；&lt;br&gt;如果有，则提示当前添加的标签已经重复" style="edgeStyle=orthogonalEdgeStyle;html=1;align=left;spacingLeft=2;endArrow=block;rounded=0;entryX=1;entryY=0;fontColor=#000000;" edge="1" target="iojGbuhWal9sQf1TP7xn-22" parent="iojGbuhWal9sQf1TP7xn-7">
          <mxGeometry relative="1" as="geometry">
            <mxPoint x="55" y="230" as="sourcePoint" />
            <Array as="points">
              <mxPoint x="85" y="230" />
            </Array>
          </mxGeometry>
        </mxCell>
        <mxCell id="iojGbuhWal9sQf1TP7xn-24" value="" style="html=1;points=[];perimeter=orthogonalPerimeter;labelBackgroundColor=#FFFFFF;fontColor=#000000;" vertex="1" parent="iojGbuhWal9sQf1TP7xn-7">
          <mxGeometry x="50" y="340" width="10" height="40" as="geometry" />
        </mxCell>
        <mxCell id="iojGbuhWal9sQf1TP7xn-25" value="changeTag" style="edgeStyle=orthogonalEdgeStyle;html=1;align=left;spacingLeft=2;endArrow=block;rounded=0;entryX=1;entryY=0;fontColor=#000000;" edge="1" target="iojGbuhWal9sQf1TP7xn-24" parent="iojGbuhWal9sQf1TP7xn-7">
          <mxGeometry relative="1" as="geometry">
            <mxPoint x="55" y="320" as="sourcePoint" />
            <Array as="points">
              <mxPoint x="85" y="320" />
            </Array>
          </mxGeometry>
        </mxCell>
        <mxCell id="iojGbuhWal9sQf1TP7xn-8" value="&lt;pre style=&quot;font-family: &amp;quot;JetBrains Mono&amp;quot;, monospace; font-size: 13.5pt;&quot;&gt;&lt;span style=&quot;background-color: rgb(255, 255, 255);&quot;&gt;Values 组件&lt;/span&gt;&lt;/pre&gt;" style="shape=umlLifeline;perimeter=lifelinePerimeter;whiteSpace=wrap;html=1;container=1;collapsible=0;recursiveResize=0;outlineConnect=0;" vertex="1" parent="1">
          <mxGeometry x="1030" y="240" width="100" height="800" as="geometry" />
        </mxCell>
        <mxCell id="iojGbuhWal9sQf1TP7xn-31" value="" style="html=1;points=[];perimeter=orthogonalPerimeter;labelBackgroundColor=#FFFFFF;fontColor=#000000;" vertex="1" parent="iojGbuhWal9sQf1TP7xn-8">
          <mxGeometry x="45" y="450" width="10" height="160" as="geometry" />
        </mxCell>
        <mxCell id="iojGbuhWal9sQf1TP7xn-34" value="" style="html=1;points=[];perimeter=orthogonalPerimeter;labelBackgroundColor=#FFFFFF;fontColor=#000000;" vertex="1" parent="iojGbuhWal9sQf1TP7xn-8">
          <mxGeometry x="50" y="520" width="10" height="40" as="geometry" />
        </mxCell>
        <mxCell id="iojGbuhWal9sQf1TP7xn-35" value="setStringInput：&lt;br&gt;1. 将最新输入的值按照一个空格拆分成数组；&lt;br&gt;2. 对数组中的值进行去重；&lt;br&gt;3. 对数量进行限制，数组长度不能大于50；" style="edgeStyle=orthogonalEdgeStyle;html=1;align=left;spacingLeft=2;endArrow=block;rounded=0;entryX=1;entryY=0;labelBackgroundColor=#FFFFFF;fontColor=#000000;" edge="1" target="iojGbuhWal9sQf1TP7xn-34" parent="iojGbuhWal9sQf1TP7xn-8">
          <mxGeometry relative="1" as="geometry">
            <mxPoint x="55" y="500" as="sourcePoint" />
            <Array as="points">
              <mxPoint x="85" y="500" />
            </Array>
          </mxGeometry>
        </mxCell>
        <mxCell id="iojGbuhWal9sQf1TP7xn-15" value="选取Excel中的一列，复制到人群筛选框中" style="text;html=1;strokeColor=none;fillColor=none;align=center;verticalAlign=middle;whiteSpace=wrap;rounded=0;labelBackgroundColor=#FFFFFF;fontColor=#000000;" vertex="1" parent="1">
          <mxGeometry x="320" y="310" width="120" height="30" as="geometry" />
        </mxCell>
        <mxCell id="iojGbuhWal9sQf1TP7xn-30" value="emit(&#39;changeTag&#39;, tagArr)" style="text;html=1;strokeColor=none;fillColor=none;align=center;verticalAlign=middle;whiteSpace=wrap;rounded=0;labelBackgroundColor=#FFFFFF;fontColor=#000000;" vertex="1" parent="1">
          <mxGeometry x="780" y="645" width="140" height="30" as="geometry" />
        </mxCell>
      </root>
    </mxGraphModel>
  </diagram>
</mxfile>
